<svg width="24" height="24" viewBox="0 0 24 24" fill="none" xmlns="http://www.w3.org/2000/svg">
<circle cx="12" cy="12" r="11" fill="black"/>
<path d="M9.94935 7.74259C9.94935 8.15101 10.0884 8.489 10.3665 8.75658C10.6446 9.02417 11.0062 9.25654 11.4511 9.4537C11.8961 9.63679 12.3898 9.81987 12.9321 10.0029C13.4744 10.1719 14.0098 10.3691 14.5382 10.5944C15.0666 10.8057 15.5533 11.0803 15.9983 11.4183C16.4571 11.7422 16.8187 12.1577 17.0829 12.6647C17.361 13.1717 17.5 13.8054 17.5 14.5659C17.5 15.6081 17.2289 16.4671 16.6866 17.1431C16.1582 17.8191 15.449 18.3261 14.559 18.6641C13.6691 18.988 12.6818 19.15 11.5972 19.15C10.8602 19.15 10.1023 19.0725 9.3236 18.9176C8.5588 18.7768 7.80095 18.5585 7.05005 18.2628L7.15434 14.249H8.88558L9.3236 16.8051L9.05244 16.2981C9.46961 16.4953 9.90763 16.6502 10.3665 16.7629C10.8393 16.8615 11.2982 16.9108 11.7432 16.9108C12.2577 16.9108 12.7305 16.8404 13.1615 16.6995C13.5926 16.5587 13.9333 16.3404 14.1836 16.0447C14.4339 15.7489 14.559 15.3827 14.559 14.9462C14.559 14.5096 14.4269 14.1505 14.1627 13.8688C13.8985 13.5871 13.537 13.3548 13.0781 13.1717C12.6331 12.9745 12.1464 12.7985 11.618 12.6436C11.0896 12.4746 10.5542 12.2844 10.0119 12.0732C9.48352 11.8619 8.98987 11.5944 8.53099 11.2704C8.08601 10.9465 7.73142 10.5381 7.46721 10.0452C7.20301 9.5382 7.07091 8.90446 7.07091 8.14396C7.07091 7.14405 7.3073 6.32723 7.78009 5.69348C8.25288 5.04566 8.89253 4.55979 9.69905 4.23587C10.5056 3.91196 11.4164 3.75 12.4315 3.75C13.1546 3.75 13.9055 3.82746 14.6842 3.98237C15.4629 4.13729 16.2416 4.36966 17.0203 4.67949L16.7909 8.37634H15.0179L14.5799 6.07373L14.9136 6.41173C14.566 6.2709 14.1905 6.16527 13.7873 6.09486C13.3979 6.01036 13.0016 5.96811 12.5984 5.96811C12.1256 5.96811 11.6875 6.03148 11.2843 6.15823C10.881 6.2709 10.5542 6.46102 10.3039 6.7286C10.0675 6.9821 9.94935 7.3201 9.94935 7.74259Z" fill="#E5E5E5"/>
</svg>
