<svg width="48" height="48" viewBox="0 0 48 48" fill="none" xmlns="http://www.w3.org/2000/svg">
<circle cx="24" cy="24" r="20" fill="black"/>
<path d="M20.2715 16.2593C20.2715 17.0018 20.5243 17.6164 21.0299 18.1029C21.5356 18.5894 22.1929 19.0119 23.002 19.3704C23.811 19.7032 24.7086 20.0361 25.6946 20.369C26.6806 20.6763 27.654 21.0348 28.6148 21.4444C29.5755 21.8285 30.4604 22.3278 31.2695 22.9424C32.1038 23.5313 32.7611 24.2867 33.2415 25.2085C33.7472 26.1303 34 27.2826 34 28.6653C34 30.5601 33.507 32.1221 32.521 33.3512C31.5602 34.5802 30.2708 35.5021 28.6527 36.1166C27.0346 36.7055 25.2395 37 23.2675 37C21.9275 37 20.5496 36.8592 19.1337 36.5775C17.7432 36.3214 16.3653 35.9246 15 35.3868L15.1896 28.0892H18.3373L19.1337 32.7366L18.6407 31.8148C19.3992 32.1733 20.1956 32.455 21.0299 32.6598C21.8896 32.839 22.7239 32.9287 23.5329 32.9287C24.4684 32.9287 25.328 32.8006 26.1118 32.5446C26.8955 32.2885 27.515 31.8916 27.9701 31.3539C28.4251 30.8162 28.6527 30.1504 28.6527 29.3567C28.6527 28.5629 28.4125 27.9099 27.9321 27.3978C27.4518 26.8857 26.7944 26.4632 25.9601 26.1303C25.151 25.7718 24.2661 25.4518 23.3054 25.1701C22.3446 24.8628 21.3713 24.5171 20.3852 24.1331C19.4245 23.749 18.5269 23.2625 17.6926 22.6735C16.8836 22.0846 16.2389 21.342 15.7585 20.4458C15.2781 19.524 15.0379 18.3717 15.0379 16.989C15.0379 15.171 15.4677 13.6859 16.3273 12.5336C17.187 11.3557 18.35 10.4723 19.8164 9.8834C21.2828 9.29447 22.9388 9 24.7844 9C26.0991 9 27.4644 9.14083 28.8802 9.4225C30.2961 9.70416 31.7119 10.1267 33.1277 10.69L32.7106 17.4115H29.487L28.6906 13.225L29.2974 13.8395C28.6653 13.5834 27.9827 13.3914 27.2495 13.2634C26.5416 13.1097 25.821 13.0329 25.0878 13.0329C24.2282 13.0329 23.4318 13.1481 22.6986 13.3786C21.9654 13.5834 21.3713 13.9291 20.9162 14.4156C20.4864 14.8765 20.2715 15.4911 20.2715 16.2593Z" fill="#E5E5E5"/>
</svg>
